<?xml version="1.0" encoding="utf-8"?>
<!-- Generator: Adobe Illustrator 20.0.0, SVG Export Plug-In . SVG Version: 6.00 Build 0)  -->
<svg version="1.1" id="Layer_1" xmlns="http://www.w3.org/2000/svg" xmlns:xlink="http://www.w3.org/1999/xlink" x="0px" y="0px"
	 viewBox="0 0 32 32" style="enable-background:new 0 0 32 32;" xml:space="preserve">
<style type="text/css">
	.st0{fill:#FFFFFF;}
</style>
<g>
	<path class="st0" d="M14.3,15.6c0,0,1.7-0.1,1.7-2.1c0-2-1.1-3-2.9-3l-6,0v11.1h6.1c0,0,3,0.1,3-3.3C16.3,18.2,16.5,15.6,14.3,15.6
		z M9.3,12.1h3c0,0,1,0,1,1.4c0,1.4-1,1.4-1,1.4h-3V12.1z M12.7,19.9H9.3v-3.3h3.3c0,0,1.7,0,1.7,1.7C14.3,19.9,12.9,19.9,12.7,19.9
		z"/>
	<path class="st0" d="M21,19.9c0,0-1.7,0-1.7-2.2c0,0,4.4,0,5.5,0c0-1.1,0-4.4-3.9-4.4c-4.2,0-4.2,4.2-4.2,4.2s-0.3,4.2,4.2,4.2
		c0,0,3.9,0,3.9-3.3h-2.2C22.6,18.2,22.6,19.9,21,19.9z M21,14.9c1.7,0,1.7,1.7,1.7,1.7h-3.3C19.3,16.6,19.3,14.9,21,14.9z"/>
	<rect x="18.8" y="11.6" class="st0" width="4.4" height="1.1"/>
</g>
</svg>
